<?xml version="1.0" encoding="UTF-8"?>
<svg xmlns="http://www.w3.org/2000/svg" width="150" height="150" viewBox="0 0 150 150" version="1.1">
  <title>Arepas y Algo Más - logo vectorizado sin fondo</title>
  <desc>Vectorización aproximada desde el logo raster suministrado. Fondo transparente.</desc>
  <g id="logo" fill-rule="evenodd" clip-rule="evenodd" shape-rendering="geometricPrecision">
    <path id="grey_light" fill="#c0c0b8" d="M98.00,15.83 L86.67,16.50 L79.50,12.50 L72.00,12.83 L58.00,17.83 L46.67,16.83 L43.00,15.17 L38.33,15.67 L34.67,19.50 L33.50,25.00 L20.83,36.00 L21.17,37.00 L28.17,35.17 L30.00,38.50 L34.67,38.67 L34.50,39.67 L28.67,42.67 L24.83,46.50 L25.17,50.00 L26.83,50.17 L29.83,48.00 L30.83,48.50 L24.83,57.17 L19.83,70.17 L18.83,76.00 L18.83,88.00 L21.00,97.67 L24.83,106.50 L26.83,109.00 L22.67,109.17 L22.00,110.83 L25.67,113.50 L26.33,116.00 L48.33,130.00 L58.50,132.17 L61.33,136.33 L63.83,136.33 L66.33,133.17 L76.33,133.67 L82.33,133.00 L88.50,131.17 L92.33,132.17 L95.67,128.33 L99.33,126.50 L102.83,127.00 L105.67,124.17 L110.67,121.83 L120.50,112.83 L120.33,111.50 L119.00,111.50 L117.33,113.00 L115.00,111.50 L120.17,102.50 L123.17,93.00 L136.17,91.83 L137.00,76.83 L136.00,62.00 L123.17,61.67 L119.83,52.00 L113.00,42.00 L113.33,41.33 L118.83,41.33 L121.00,39.67 L121.00,35.50 L119.00,30.17 L117.17,27.83 L110.33,22.83 Z M99.83,16.67 L114.17,25.83 L118.83,30.33 L120.83,36.00 L120.83,39.33 L118.83,41.17 L112.50,41.50 L119.83,52.50 L123.17,62.00 L133.83,61.67 L136.00,62.50 L136.67,77.33 L136.17,91.33 L135.50,92.17 L123.33,92.33 L119.17,104.00 L114.17,112.00 L114.33,112.67 L116.00,112.33 L116.83,113.50 L119.00,111.67 L120.17,112.67 L110.50,121.67 L105.67,124.00 L102.67,126.83 L99.17,126.33 L95.67,128.17 L91.83,132.00 L88.67,131.00 L79.50,133.17 L66.33,133.00 L63.67,136.17 L61.33,136.17 L59.83,134.83 L58.83,132.00 L48.67,129.83 L26.50,115.83 L25.83,113.33 L22.33,110.67 L23.17,109.33 L27.33,109.67 L23.83,104.00 L19.83,92.33 L18.83,84.00 L19.67,72.17 L23.83,59.67 L31.17,48.33 L30.33,47.67 L25.83,50.00 L24.67,48.67 L25.17,46.50 L28.67,43.00 L34.33,40.00 L34.83,38.67 L30.00,38.17 L28.33,35.00 L26.33,35.00 L22.33,36.83 L21.17,36.17 L33.33,25.67 L35.00,19.67 L38.50,15.83 L43.50,15.50 L46.67,17.00 L57.33,18.17 L72.33,13.00 L79.50,12.67 L86.50,16.67 L95.17,16.00 Z M105.17,116.50 L102.83,118.50 L101.33,115.67 L100.50,115.50 L100.00,120.50 L101.50,120.00 L101.83,120.67 L100.67,121.67 L99.67,120.83 L98.67,122.50 L98.00,122.00 L97.83,118.33 L94.83,118.17 L93.17,121.00 L93.50,124.83 L94.50,125.17 L96.67,123.33 L98.00,124.67 L102.33,125.17 L104.00,122.83 L103.50,120.17 Z M101.00,115.83 L101.83,118.33 L103.67,118.83 L103.50,123.83 L101.50,125.33 L99.67,124.17 L97.83,124.33 L96.00,122.67 L96.33,120.50 L95.33,119.33 L94.33,122.17 L95.67,123.33 L94.00,124.83 L93.17,121.83 L95.00,118.33 L97.83,118.83 L97.67,122.33 L98.33,123.00 L101.83,121.33 L102.00,119.83 L100.33,119.33 L100.17,116.17 Z M81.83,115.17 L80.17,116.83 L79.67,118.83 L80.67,119.67 L81.33,117.33 L82.83,116.83 L80.00,128.67 L81.33,128.50 L84.83,119.67 L86.33,118.00 L85.00,126.67 L85.50,127.33 L86.17,126.83 L88.83,119.83 L90.17,119.33 L89.00,128.17 L90.67,130.33 L92.33,130.00 L92.83,128.50 L91.33,129.17 L90.50,128.33 L91.67,117.33 L90.00,117.17 L88.33,119.17 L88.00,116.67 L86.67,115.83 L84.33,119.00 L83.67,115.67 Z M90.33,117.17 L91.67,117.67 L90.33,127.83 L90.67,129.00 L92.83,129.17 L91.67,130.17 L89.17,128.33 L90.67,118.83 L89.33,118.33 Z M87.33,116.00 L88.67,120.67 L85.67,126.83 L85.33,123.00 L87.17,119.33 L86.00,116.83 Z M82.83,115.17 L83.83,116.50 L83.50,118.67 L84.67,120.00 L80.50,128.83 L80.00,128.17 L82.83,116.33 L81.83,116.33 L80.33,119.67 L79.83,118.50 L80.50,116.67 Z M48.00,121.83 L49.17,124.67 L53.00,122.67 L53.33,127.50 L55.83,128.00 L57.17,129.67 L58.50,129.67 L61.33,126.83 L63.67,128.50 L60.67,132.50 L62.33,134.83 L63.50,134.50 L66.50,127.33 L68.17,125.67 L70.33,127.67 L71.50,127.67 L75.83,123.50 L74.67,120.17 L72.83,119.33 L67.67,124.67 L67.00,120.67 L66.00,120.17 L59.50,127.50 L58.00,128.17 L58.67,123.33 L63.67,116.17 L63.33,112.83 L62.50,112.83 L60.17,115.67 L55.50,126.17 L54.50,126.33 L54.17,125.50 L57.50,117.83 L57.00,116.33 L50.50,122.67 L49.83,121.33 L54.33,114.67 L55.67,114.17 L57.17,115.00 L56.17,113.00 L54.67,112.67 L52.17,114.50 L49.17,118.50 Z M72.33,123.67 L72.50,125.50 L70.83,126.33 L71.00,124.00 Z M67.33,122.67 L66.83,124.67 L67.83,125.50 L66.33,127.17 L63.50,134.17 L62.17,134.67 L61.00,133.00 L61.17,131.50 L65.00,127.67 L65.00,125.33 Z M63.50,129.83 L61.67,131.83 L62.17,133.67 L64.00,131.50 Z M63.67,130.33 L63.83,131.50 L62.33,133.50 L61.67,132.17 Z M66.50,122.17 L64.83,125.33 L63.50,125.83 L64.67,123.00 Z M74.17,120.00 L75.50,123.33 L70.67,127.67 L70.17,126.83 L72.67,125.50 L74.00,122.83 Z M73.17,119.67 L70.33,126.17 L68.17,125.33 Z M63.33,113.00 L63.50,115.67 L62.17,114.50 L60.83,118.00 L61.67,119.00 L58.67,122.83 L57.50,126.50 L57.83,128.33 L59.17,128.00 L66.17,120.33 L66.83,121.33 L65.33,122.00 L62.67,126.17 L63.67,126.67 L63.17,127.67 L61.33,126.67 L58.17,129.67 L55.83,127.67 L53.83,127.67 L53.00,126.33 L53.67,121.67 L49.83,124.67 L48.83,124.00 L48.17,121.83 L49.50,118.33 L53.67,113.33 L55.33,112.83 L57.00,114.33 L54.83,114.00 L50.67,119.00 L49.50,122.83 L50.67,122.83 L57.00,116.83 L57.33,117.67 L54.00,125.33 L54.50,126.67 L56.00,126.17 L60.17,116.00 L62.50,113.00 Z M44.00,113.17 L42.50,112.50 L40.33,113.00 L39.67,115.00 L36.00,117.50 L35.33,119.50 L38.50,121.67 L43.50,119.50 L41.33,117.83 L40.33,118.00 L39.50,120.00 L37.83,120.17 L36.83,119.33 L38.83,117.50 L41.67,117.17 L44.00,115.67 L44.67,114.50 Z M43.50,113.00 L44.33,114.17 L43.67,115.67 L43.00,115.50 L43.50,114.33 L42.00,113.67 L40.83,115.67 L42.33,116.50 L39.83,116.67 L36.67,119.17 L37.50,120.17 L40.67,119.67 L40.33,118.33 L41.00,118.00 L42.83,119.50 L38.33,121.50 L35.50,119.33 L36.67,117.17 L39.67,115.50 L40.33,113.17 Z M107.83,107.17 L107.17,109.83 L108.17,116.50 L109.17,117.33 L108.67,107.83 Z M107.67,107.50 L108.67,108.83 L108.67,114.67 L107.17,108.83 Z M49.83,102.33 L56.17,106.83 L64.83,110.00 L64.67,109.00 L60.83,108.33 L57.33,106.67 L57.17,105.83 L55.00,105.50 L50.67,101.83 Z M100.83,95.33 L100.17,95.67 L100.00,95.00 L99.67,96.17 L96.83,97.17 L96.33,99.67 L99.33,96.50 L97.50,99.33 L95.67,100.50 L95.17,102.33 L95.00,101.50 L94.83,102.50 L94.17,102.00 L91.33,104.83 L87.83,107.17 L87.00,106.83 L86.00,108.17 L83.83,108.00 L83.33,109.00 L81.50,109.50 L80.33,109.00 L80.67,109.67 L78.67,110.50 L75.33,109.83 L76.17,110.00 L75.83,110.50 L68.67,110.50 L68.67,109.83 L71.33,109.83 L66.67,110.50 L76.00,110.83 L85.33,108.67 L95.00,102.50 Z M41.67,80.67 L43.00,91.17 L47.83,100.17 L48.00,98.83 L46.00,96.33 L47.17,96.83 L47.83,98.50 L47.33,96.50 L44.50,94.67 L45.00,93.17 L43.50,91.00 Z M104.67,72.67 L104.50,80.83 L104.00,79.17 L104.50,82.83 L103.00,89.83 L101.00,92.50 L101.33,94.33 L104.67,85.00 Z M87.67,71.50 L84.33,70.33 L77.83,71.83 L76.67,73.00 L75.33,72.50 L75.00,73.33 L72.17,74.33 L73.17,74.83 L72.50,75.67 L71.50,74.67 L69.50,75.33 L70.83,75.17 L71.67,76.00 L69.17,76.00 L68.00,77.00 L69.00,76.50 L69.67,77.33 L68.33,77.17 L63.33,81.67 L62.50,80.83 L65.00,79.00 L63.67,79.00 L61.17,81.17 L58.17,86.17 L58.17,87.50 L61.00,89.50 L63.83,89.00 L65.00,87.67 L65.83,87.83 L66.33,86.33 L69.83,85.17 L69.17,84.83 L70.17,84.17 L70.33,85.00 L72.50,82.50 L73.33,83.00 L72.00,83.83 L75.00,82.17 L74.00,82.00 L74.33,81.33 L79.17,79.83 L82.67,77.33 L83.50,77.83 L87.00,75.00 L73.67,81.33 L62.50,88.83 L60.00,88.00 L59.83,86.00 L65.67,80.00 L76.33,74.33 L84.00,71.83 Z M128.50,67.17 L127.50,68.17 L127.83,85.33 L131.00,85.83 L131.83,83.83 L131.67,67.67 Z M128.67,67.33 L131.50,68.00 L131.67,84.17 L130.83,85.67 L128.00,85.33 L127.83,68.83 Z M105.83,62.50 L105.50,69.50 L106.67,73.17 L107.17,67.33 L106.17,65.67 L106.83,63.17 Z M44.33,61.50 L42.67,62.83 L43.33,65.17 L41.83,69.83 L44.67,65.83 L43.50,63.83 Z M59.67,55.17 L52.83,60.00 L49.00,63.83 L51.83,62.33 L55.17,58.67 L58.83,56.83 L58.33,56.33 Z M52.17,53.67 L50.33,56.00 L48.17,56.00 L48.33,57.33 L46.50,60.50 Z M91.67,53.17 L93.00,54.50 L94.50,54.67 L97.17,52.83 L99.17,54.50 L99.67,56.17 L100.33,55.67 L99.33,53.33 L97.00,52.33 L94.83,53.17 L93.33,52.17 Z M111.00,51.17 L110.50,52.00 L113.50,56.17 L115.67,61.50 L117.83,71.67 L117.67,84.83 L115.33,95.17 L110.17,105.83 L111.50,107.00 L115.50,99.33 L117.83,91.50 L119.17,74.67 L118.67,68.67 L116.67,61.17 L113.67,54.50 Z M118.67,78.67 L118.67,85.33 L116.67,95.50 L113.67,103.17 L111.17,106.83 L110.67,106.00 L113.83,100.17 L116.67,92.00 Z M38.67,50.67 L33.33,56.00 L28.33,64.50 L25.00,76.67 L25.17,89.50 L26.83,95.67 L30.33,103.33 L35.83,109.83 L36.33,109.00 L32.17,103.83 L27.17,92.83 L26.17,88.67 L26.17,75.83 L29.17,65.50 L32.17,59.67 L39.00,51.33 Z M28.17,97.17 L35.67,109.33 L31.00,104.00 L28.17,98.67 Z M74.00,48.33 L71.17,46.17 L70.67,47.50 L68.00,48.17 L66.50,45.17 L65.67,45.00 L63.17,48.00 L63.50,49.50 L60.00,50.33 L59.00,52.50 L62.83,50.67 Z M75.50,48.33 L77.17,49.00 L83.33,48.50 L89.00,52.67 L90.17,52.17 L89.33,49.33 L88.17,51.00 L87.67,48.50 L85.83,48.67 L84.83,46.33 L83.00,47.83 L81.83,47.67 L80.83,44.67 L78.33,47.17 L76.83,46.00 Z M52.83,25.33 L53.17,27.67 L56.50,29.50 L56.17,35.67 L58.50,38.83 L60.83,37.33 L64.33,30.50 L65.33,34.17 L68.17,35.50 L70.50,34.17 L73.67,29.33 L74.33,29.67 L72.50,42.50 L74.00,46.83 L74.83,46.33 L76.00,36.83 L77.83,32.17 L82.33,25.67 L87.00,21.00 L88.17,21.33 L87.83,23.33 L83.00,29.67 L79.67,32.50 L81.00,34.83 L82.17,34.83 L87.33,30.00 L90.83,28.67 L91.83,29.00 L91.17,33.00 L92.67,35.00 L94.33,34.67 L98.00,31.83 L98.67,32.17 L98.00,37.17 L99.83,39.17 L101.67,38.67 L108.33,33.83 L108.50,37.33 L102.83,39.33 L101.33,41.33 L102.17,44.17 L105.50,46.17 L107.00,46.17 L109.50,44.17 L111.33,40.00 L118.67,39.33 L118.00,38.17 L111.50,37.50 L112.00,32.67 L113.67,30.33 L113.67,29.00 L112.50,28.17 L110.67,28.50 L108.83,31.83 L101.00,36.83 L100.67,35.17 L104.50,29.33 L104.67,27.50 L103.17,26.33 L101.33,26.50 L99.00,23.00 L96.50,23.17 L93.33,26.00 L90.00,27.17 L89.50,26.33 L90.83,23.67 L90.83,20.00 L89.17,18.17 L86.50,18.83 L78.83,27.67 L80.83,19.67 L79.67,18.00 L78.17,18.00 L76.33,23.50 L68.50,33.50 L67.17,32.17 L67.33,28.33 L71.67,24.50 L73.00,20.50 L71.00,19.00 L68.00,19.33 L65.33,22.17 L61.17,33.67 L59.50,36.17 L58.83,34.17 L59.67,27.17 L55.50,26.67 L55.33,23.67 L53.67,24.00 Z M53.00,25.50 L55.17,23.83 L55.17,27.00 L59.50,27.33 L58.67,34.00 L59.33,36.83 L61.17,34.17 L65.50,22.33 L68.33,19.33 L71.17,19.17 L72.83,21.17 L71.67,24.17 L67.00,28.33 L66.67,31.67 L68.00,33.83 L70.67,31.83 L76.67,23.50 L78.33,18.17 L79.83,18.33 L80.67,19.67 L78.00,28.83 L79.50,28.00 L84.50,21.17 L87.50,18.50 L89.17,18.33 L90.67,20.00 L90.67,23.67 L89.00,27.50 L93.33,26.33 L96.67,23.33 L99.00,23.17 L101.50,27.00 L103.17,26.67 L104.50,27.67 L104.50,29.00 L100.67,34.67 L100.33,37.17 L101.83,37.00 L109.00,32.00 L109.83,29.67 L112.17,28.33 L113.67,30.00 L111.83,32.33 L111.00,37.50 L111.83,38.17 L118.00,38.33 L118.50,39.33 L111.33,39.67 L107.83,45.50 L104.67,45.83 L102.17,43.83 L101.50,41.67 L103.17,39.33 L108.67,37.83 L109.17,34.00 L108.50,33.33 L101.83,38.33 L99.50,38.83 L98.17,37.00 L99.00,31.67 L98.17,31.33 L93.83,34.67 L92.33,34.67 L91.33,32.83 L92.17,28.50 L87.17,29.83 L81.17,34.67 L79.83,32.67 L86.00,26.67 L88.17,23.17 L88.50,21.00 L87.00,20.67 L81.17,26.83 L76.67,34.00 L74.17,46.67 L73.00,44.67 L73.00,39.00 L74.83,29.00 L73.50,29.00 L70.33,34.00 L68.50,35.17 L65.33,33.67 L65.00,30.00 L64.17,30.00 L61.50,36.00 L59.67,38.50 L58.67,38.67 L56.50,35.83 L57.00,28.67 L54.00,28.17 Z M108.00,39.83 L103.50,40.67 L102.67,42.83 L104.50,43.67 L105.83,43.17 Z M107.50,40.33 L105.67,43.00 L102.83,42.67 L103.67,40.83 L106.17,39.83 Z M99.17,24.67 L98.00,24.67 L93.83,30.83 L94.00,32.83 L99.67,28.50 L100.00,26.17 Z M99.00,24.83 L99.83,26.33 L99.50,28.17 L94.33,32.33 L94.00,31.17 L98.00,25.00 Z M70.83,20.50 L69.00,20.83 L67.67,24.17 L68.00,25.67 L71.00,22.83 Z M70.67,20.67 L71.00,22.17 L68.33,25.33 L67.83,24.17 L68.83,21.83 Z M38.67,17.50 L36.17,20.50 L35.00,26.83 L35.17,34.33 L37.17,41.33 L40.33,44.67 L44.17,44.50 L44.83,43.00 L44.83,34.50 L45.50,33.83 L49.33,41.50 L51.67,43.17 L53.50,42.83 L54.00,38.50 L53.00,38.00 L52.33,40.50 L51.00,39.83 L47.83,31.17 L47.50,21.67 L46.50,20.33 L44.33,21.67 L43.00,41.17 L42.33,41.83 L41.33,41.33 L38.83,34.17 L38.50,24.17 L40.00,19.67 L41.67,18.50 L43.67,19.83 L44.83,17.67 L43.17,17.00 Z M39.33,17.33 L44.67,17.67 L43.67,19.67 L41.67,18.33 L40.00,19.17 L38.00,25.67 L38.83,35.33 L41.00,41.50 L42.00,42.17 L43.17,41.67 L44.67,21.67 L46.33,20.67 L47.17,21.83 L47.67,31.50 L51.00,40.33 L52.50,41.17 L53.00,38.67 L53.83,38.50 L53.83,42.17 L53.17,42.83 L51.17,42.67 L48.33,39.83 L45.83,33.17 L44.67,34.33 L44.67,43.00 L43.83,44.50 L40.17,44.33 L37.33,41.17 L35.17,33.17 L35.17,26.50 L36.33,20.50 Z"/>
    <path id="grey_dark" fill="#777775" d="M99.83,16.83 L97.33,16.17 L86.50,16.83 L79.50,12.83 L72.33,13.17 L57.33,18.33 L46.67,17.17 L43.50,15.67 L38.50,16.00 L35.17,19.67 L33.50,25.67 L21.33,36.17 L22.33,36.67 L26.33,34.83 L28.33,34.83 L30.00,38.00 L34.33,38.00 L35.00,38.67 L34.33,40.17 L28.67,43.17 L25.33,46.50 L24.83,48.67 L25.83,49.83 L30.33,47.50 L31.33,48.33 L24.00,59.67 L19.83,72.17 L19.00,84.00 L20.00,92.33 L24.00,104.00 L27.50,109.67 L23.17,109.50 L22.50,110.67 L26.00,113.33 L26.50,115.67 L48.67,129.67 L58.83,131.83 L61.33,136.00 L63.67,136.00 L66.33,132.83 L79.50,133.00 L88.67,130.83 L91.83,131.83 L95.67,128.00 L99.17,126.17 L102.67,126.67 L105.67,123.83 L110.50,121.50 L120.00,112.67 L119.00,111.83 L116.83,113.67 L116.00,112.50 L114.33,112.83 L114.00,112.00 L119.00,104.00 L123.17,92.33 L135.50,92.00 L136.00,91.33 L136.50,77.33 L135.83,62.50 L133.83,61.83 L123.00,62.00 L119.67,52.50 L112.33,41.50 L118.83,41.00 L120.67,39.33 L120.67,36.00 L118.67,30.33 L114.17,26.00 Z M55.50,114.50 L56.33,115.67 L50.33,122.17 L53.17,116.17 Z M47.83,121.83 L49.00,118.50 L52.00,114.50 L54.67,112.50 L56.17,112.83 L57.33,115.00 L56.67,115.33 L55.67,114.33 L54.33,114.83 L50.00,121.33 L50.50,122.50 L57.00,116.17 L57.67,117.83 L54.33,125.50 L55.50,126.00 L60.00,115.67 L62.50,112.67 L63.33,112.67 L63.83,116.17 L58.83,123.33 L58.00,128.00 L59.00,127.83 L66.00,120.00 L67.17,120.67 L67.67,124.50 L72.83,119.17 L74.83,120.17 L76.00,123.50 L71.50,127.83 L70.33,127.83 L68.17,125.83 L66.67,127.33 L63.67,134.50 L62.33,135.00 L60.50,132.50 L63.33,128.00 L61.33,127.00 L58.50,129.83 L57.17,129.83 L55.83,128.17 L53.17,127.50 L52.50,125.50 L53.00,122.83 L49.17,124.83 Z M66.50,122.33 L64.83,123.00 L63.50,125.67 L64.67,125.33 Z M38.67,17.33 L43.17,16.83 L45.00,17.67 L43.67,20.00 L41.67,18.67 L40.17,19.67 L38.67,24.17 L39.00,34.17 L41.50,41.33 L42.83,41.17 L44.17,21.67 L46.50,20.17 L47.67,21.67 L48.00,31.17 L51.00,39.50 L52.33,40.33 L52.83,38.00 L53.67,37.67 L54.33,41.67 L53.50,43.00 L51.67,43.33 L49.17,41.50 L45.50,34.00 L45.00,43.00 L44.17,44.67 L40.33,44.83 L37.00,41.33 L35.00,34.33 L34.83,26.83 L36.00,20.50 Z M99.50,16.83 L104.17,20.50 L114.17,26.17 L118.50,30.33 L119.83,33.33 L120.50,39.33 L118.33,41.00 L112.50,40.83 L112.17,41.50 L118.83,51.17 L123.00,62.33 L135.67,62.50 L135.83,91.50 L123.83,91.83 L122.83,92.50 L118.83,104.17 L113.67,112.33 L116.33,113.83 L119.17,111.83 L120.00,112.50 L110.67,121.17 L105.17,124.00 L102.33,126.67 L98.83,126.17 L95.33,128.00 L91.50,131.67 L88.00,130.83 L80.00,132.83 L66.50,132.67 L65.17,133.17 L63.67,135.83 L61.67,136.00 L59.83,133.50 L61.50,134.83 L63.50,134.83 L66.83,127.33 L68.17,126.00 L71.33,128.00 L76.33,123.50 L74.17,119.17 L72.50,119.17 L68.67,123.83 L67.33,120.50 L65.50,120.00 L58.33,128.00 L57.83,127.00 L59.00,123.33 L63.83,116.50 L64.00,113.00 L62.33,112.50 L60.00,115.33 L55.17,126.00 L54.50,125.50 L55.17,122.83 L57.83,117.67 L57.67,114.17 L55.33,112.17 L53.00,113.17 L48.17,119.83 L48.00,123.67 L50.17,125.00 L52.67,123.00 L52.33,125.67 L53.17,127.83 L55.50,128.17 L57.33,130.00 L58.67,129.83 L61.33,127.17 L63.17,128.67 L60.00,132.67 L59.33,131.67 L53.00,130.83 L47.17,128.83 L27.00,115.83 L26.17,113.17 L22.67,110.50 L23.17,109.67 L27.17,110.50 L27.83,109.83 L24.00,103.67 L20.00,91.67 L19.17,84.17 L20.00,72.00 L24.00,60.00 L31.50,48.50 L31.33,47.50 L30.17,47.33 L25.83,49.67 L25.00,48.83 L25.17,47.33 L27.83,44.00 L34.33,40.33 L35.17,38.50 L34.50,37.83 L30.33,38.00 L28.33,34.67 L22.67,36.33 L21.83,35.67 L32.83,26.50 L34.67,23.50 L35.17,36.33 L38.33,43.67 L41.33,45.17 L44.50,44.67 L45.50,34.67 L48.17,40.50 L51.50,43.50 L54.00,42.67 L54.50,40.67 L53.83,37.50 L52.83,37.67 L52.67,39.67 L51.67,40.00 L49.00,34.00 L47.83,29.00 L47.83,21.50 L46.50,20.00 L44.00,21.67 L42.67,40.83 L41.50,40.83 L39.00,33.33 L38.83,23.67 L41.00,19.00 L44.00,20.00 L45.17,18.00 L44.00,16.83 L38.83,17.00 L36.00,20.00 L35.67,22.50 L34.83,23.17 L36.00,18.50 L39.00,16.00 L44.33,15.83 L46.67,17.33 L56.67,18.67 L61.17,17.67 L69.67,14.00 L77.33,12.83 L80.00,13.17 L86.00,16.83 Z M105.67,116.17 L104.17,116.33 L103.67,117.67 L102.50,118.00 L101.67,115.50 L100.33,115.17 L99.83,119.50 L98.83,120.33 L97.67,117.83 L94.33,118.17 L93.00,120.67 L93.17,125.00 L94.50,125.67 L96.50,123.67 L97.50,124.83 L102.17,125.67 L104.00,123.67 L103.83,120.00 Z M105.33,116.50 L103.67,120.17 L103.83,123.83 L102.33,125.33 L98.00,124.83 L96.67,123.50 L94.50,125.33 L93.33,124.83 L93.00,121.00 L94.83,118.00 L98.00,118.33 L98.67,122.33 L99.67,120.67 L100.17,121.50 L101.67,120.67 L99.83,120.50 L99.83,116.17 L100.50,115.33 L101.50,115.67 L102.83,118.33 L104.50,116.33 Z M81.50,115.00 L79.50,118.17 L79.50,119.67 L80.33,120.17 L82.33,117.33 L79.67,127.50 L80.00,129.17 L80.67,129.50 L81.83,128.33 L85.33,119.83 L84.67,124.67 L85.17,127.67 L86.67,126.67 L89.67,120.00 L88.83,128.67 L90.50,130.67 L92.00,130.67 L93.67,128.33 L91.17,128.83 L90.67,128.17 L91.83,117.17 L90.33,116.67 L88.50,118.17 L88.00,116.00 L86.50,115.50 L84.33,118.50 L83.83,115.33 Z M81.83,115.00 L83.83,115.67 L84.33,118.83 L86.67,115.67 L87.83,116.00 L88.33,119.00 L90.33,116.83 L91.83,117.33 L90.67,128.33 L93.33,128.83 L92.33,130.17 L90.67,130.50 L88.83,128.17 L90.17,119.50 L89.00,119.83 L85.67,127.50 L85.00,127.00 L85.00,123.17 L86.33,118.17 L85.00,119.67 L80.83,129.17 L79.83,128.67 L82.67,116.83 L81.50,117.33 L80.67,119.83 L79.50,118.83 L80.00,116.83 Z M99.33,113.17 L98.00,112.83 L96.17,115.67 L97.67,115.67 Z M98.67,112.83 L98.83,114.33 L96.67,115.67 L96.50,114.67 Z M43.33,112.33 L40.17,112.83 L39.33,114.83 L35.67,117.50 L35.00,119.50 L36.33,120.83 L40.00,121.83 L43.83,119.67 L43.83,118.67 L42.00,117.83 L44.83,115.00 L44.67,113.50 Z M40.00,117.83 L39.50,119.67 L37.17,119.33 Z M43.50,112.67 L44.83,114.33 L44.33,115.50 L41.67,117.33 L38.83,117.67 L37.00,119.33 L39.50,119.83 L40.17,118.00 L41.33,117.67 L43.50,118.67 L43.50,119.67 L38.50,121.83 L35.17,119.50 L35.83,117.50 L39.50,115.00 L40.33,112.83 Z M107.33,107.00 L106.83,109.50 L108.00,117.00 L108.83,118.00 L108.00,120.50 L109.33,121.00 L110.33,119.00 L109.67,118.17 L108.67,107.17 Z M107.83,107.00 L108.83,107.83 L109.67,116.00 L109.17,117.50 L108.00,116.50 L107.00,107.67 Z M87.50,74.17 L85.17,73.83 L84.67,74.50 L87.00,74.50 L73.50,81.00 L63.67,87.83 L61.17,88.17 L62.83,88.50 L73.67,81.17 Z M88.00,72.00 L86.50,71.50 L83.17,72.33 L85.50,73.00 L87.50,72.83 Z M127.83,67.00 L127.17,67.83 L127.50,85.17 L128.00,86.00 L131.50,86.00 L132.17,82.17 L132.00,67.67 L131.33,66.83 Z M128.50,67.00 L131.83,67.67 L132.00,83.83 L131.00,86.00 L127.67,85.33 L127.33,68.17 Z M60.17,54.50 L54.17,58.50 L48.00,64.50 L44.33,70.17 L42.00,76.33 L41.33,80.17 L42.00,88.83 L45.00,96.50 L48.17,101.00 L44.50,95.17 L41.83,87.50 L42.17,76.33 L44.33,70.50 L48.33,64.33 L52.83,59.83 Z M112.00,51.33 L104.00,51.17 L95.00,46.00 L88.50,44.00 L77.83,44.17 L75.00,48.00 L73.00,47.67 L71.17,45.33 L67.67,46.00 L65.83,44.50 L63.17,47.17 L56.50,48.67 L48.50,45.17 L43.83,49.17 L40.00,50.50 L38.33,50.17 L33.00,56.00 L30.17,60.50 L26.17,69.33 L25.00,74.33 L25.00,90.33 L27.00,97.17 L30.00,103.33 L35.33,110.00 L51.00,112.83 L55.50,110.83 L59.67,114.50 L61.83,111.50 L53.83,107.67 L52.33,107.50 L49.00,110.83 L46.33,109.67 L48.33,107.67 L50.00,107.83 L49.50,106.50 L50.33,105.50 L44.67,99.17 L42.17,100.00 L40.17,101.83 L37.50,100.67 L39.83,98.50 L41.83,99.33 L41.33,97.17 L43.17,97.83 L40.33,88.83 L38.67,87.67 L35.83,89.17 L32.83,89.17 L32.17,87.50 L33.83,86.50 L35.67,86.83 L39.33,84.83 L40.17,76.00 L34.17,74.67 L32.00,73.17 L32.83,71.50 L33.17,72.17 L36.17,72.17 L36.00,73.33 L36.83,73.67 L38.67,72.33 L41.17,72.33 L46.83,63.50 L41.83,70.00 L43.17,65.17 L42.83,62.17 L46.50,60.33 L48.17,57.33 L48.00,56.00 L50.33,55.83 L51.67,53.67 L53.83,52.67 L56.17,49.00 L58.50,48.67 L59.67,50.50 L62.67,50.00 L64.17,46.17 L66.17,44.83 L68.00,48.00 L70.67,47.33 L71.17,46.00 L74.17,48.50 L62.83,50.83 L59.17,53.00 L70.83,49.17 L75.17,49.17 L73.33,50.67 L75.83,49.67 L79.17,50.00 L80.00,49.17 L75.33,48.33 L76.83,45.83 L78.33,47.00 L80.83,44.50 L81.83,47.50 L83.00,47.67 L84.83,46.17 L85.83,48.50 L87.83,48.50 L88.17,50.83 L89.33,49.17 L90.00,49.83 L89.83,52.67 L86.67,51.50 L89.83,53.83 L92.83,54.67 L91.50,53.17 L93.33,52.00 L94.83,53.00 L96.50,52.17 L99.17,53.00 L100.67,57.33 L102.67,58.00 L102.33,60.00 L104.33,56.00 L106.00,56.17 L107.00,57.33 L106.50,58.33 L104.67,58.50 L103.17,60.67 L107.00,63.17 L106.33,65.67 L107.33,67.33 L106.50,73.33 L105.00,69.50 L104.83,85.00 L101.67,94.17 L96.50,101.17 L91.17,105.67 L85.33,108.83 L79.33,110.67 L71.83,111.17 L62.33,109.67 L56.17,107.00 L49.33,102.17 L55.67,106.83 L61.83,109.67 L66.67,110.83 L79.17,110.83 L88.17,107.67 L95.00,102.83 L101.83,94.17 L104.83,86.00 L105.17,71.00 L106.67,75.00 L106.67,86.17 L108.17,85.67 L111.50,86.67 L113.33,88.33 L111.50,90.17 L108.00,88.50 L106.67,86.67 L105.33,88.50 L102.17,97.17 L106.33,100.00 L106.17,102.00 L103.67,101.50 L103.67,99.33 L102.33,99.33 L102.17,100.17 L100.83,98.83 L93.33,106.67 L95.50,107.83 L95.50,110.17 L93.50,110.67 L93.00,109.67 L93.83,109.33 L93.67,108.50 L91.67,107.33 L80.67,112.67 L65.67,112.50 L66.50,114.00 L65.50,116.67 L69.33,117.00 L74.00,115.67 L78.50,115.67 L79.33,115.17 L78.67,114.00 L80.33,113.00 L85.67,114.83 L91.17,111.67 L96.17,112.67 L103.83,108.50 L106.83,105.67 L108.83,105.67 L111.67,107.33 L117.00,95.83 L119.67,80.00 L119.00,69.00 L117.83,63.83 L115.00,56.33 Z M112.17,71.00 L112.83,72.50 L111.67,73.50 L109.67,72.50 L108.00,74.50 L107.17,74.17 L107.83,71.33 L111.00,70.50 Z M41.17,57.00 L42.17,57.33 L42.50,59.17 L44.50,60.17 L41.83,62.00 L40.17,60.50 L39.50,58.50 Z M111.00,51.00 L113.83,54.50 L116.83,61.17 L118.83,68.67 L119.33,74.67 L118.00,91.50 L115.67,99.33 L111.50,107.17 L110.00,105.83 L115.17,95.17 L117.50,84.83 L117.67,71.67 L115.50,61.50 L113.33,56.17 L110.33,52.00 Z M38.67,50.50 L39.17,51.33 L32.33,59.67 L29.33,65.50 L26.33,75.83 L26.33,88.67 L27.33,92.83 L32.33,103.83 L36.50,109.00 L35.83,110.00 L30.17,103.33 L26.67,95.67 L25.00,89.50 L24.83,76.67 L28.17,64.50 L33.17,56.00 Z M52.67,49.33 L54.50,50.00 L53.00,53.17 L51.50,50.83 Z M91.00,47.83 L93.67,49.33 L91.50,52.33 L90.50,51.50 L91.00,50.17 L90.17,48.83 Z M52.50,25.33 L53.00,28.00 L56.17,29.67 L56.00,36.33 L58.33,39.17 L60.83,37.83 L64.17,31.33 L65.00,34.33 L68.33,35.83 L70.33,34.83 L72.83,30.67 L74.00,30.33 L72.17,44.33 L73.00,46.50 L74.17,47.17 L75.17,46.50 L76.17,37.67 L78.00,32.33 L83.00,25.17 L87.17,21.33 L87.83,22.83 L85.67,26.17 L79.33,32.50 L81.17,35.33 L87.67,30.17 L91.17,29.00 L91.33,34.33 L93.67,35.33 L97.67,32.67 L98.17,38.33 L99.67,39.50 L102.33,39.17 L101.00,41.33 L101.17,43.00 L103.33,45.83 L105.83,46.67 L109.67,44.50 L111.50,40.33 L118.33,40.00 L119.00,39.00 L118.50,38.00 L111.83,37.33 L112.33,32.83 L114.00,30.33 L113.83,28.67 L112.50,27.83 L110.33,28.33 L108.33,31.83 L101.17,36.50 L101.00,35.00 L105.00,29.00 L104.67,27.00 L103.17,26.00 L101.50,26.17 L100.67,24.00 L99.00,22.67 L96.17,23.00 L93.33,25.67 L90.17,26.83 L91.17,20.17 L89.00,17.83 L86.17,18.67 L79.50,27.00 L81.00,19.17 L79.50,17.67 L77.83,17.83 L76.00,23.50 L68.33,33.17 L67.50,32.00 L67.67,28.50 L72.83,23.33 L73.33,20.50 L71.50,18.83 L67.83,19.00 L65.00,22.17 L59.67,35.50 L59.17,34.17 L60.00,27.17 L58.83,26.33 L56.17,26.50 L55.50,23.33 L53.33,23.83 Z M108.33,34.67 L107.83,37.50 L102.50,38.83 L107.33,34.33 Z M52.67,25.33 L53.67,23.83 L55.33,23.50 L55.50,26.50 L59.83,27.17 L59.00,34.17 L59.50,36.00 L65.17,22.17 L68.00,19.17 L71.67,19.00 L73.17,20.50 L71.83,24.50 L67.50,28.33 L67.33,32.17 L68.50,33.33 L76.17,23.50 L78.17,17.83 L79.67,17.83 L81.00,19.67 L78.83,27.50 L86.50,18.67 L89.17,18.00 L91.00,20.00 L90.00,27.00 L93.33,25.83 L96.50,23.00 L99.00,22.83 L100.33,23.83 L101.33,26.33 L103.17,26.17 L104.83,27.50 L104.67,29.33 L100.83,35.17 L101.00,36.67 L108.83,31.67 L110.67,28.33 L112.50,28.00 L113.83,29.00 L113.83,30.33 L112.17,32.67 L111.67,37.50 L118.00,38.00 L118.83,39.33 L111.33,40.17 L109.67,44.17 L108.00,45.83 L105.50,46.33 L102.00,44.17 L101.17,41.33 L102.83,39.17 L108.33,37.33 L108.33,34.00 L101.67,38.83 L99.83,39.33 L97.83,37.17 L98.50,32.17 L92.67,35.17 L91.00,33.00 L91.67,29.00 L87.33,30.17 L82.17,35.00 L81.00,35.00 L79.50,32.50 L85.83,26.17 L88.00,22.67 L88.00,21.33 L87.00,21.17 L82.50,25.67 L78.00,32.17 L76.17,36.83 L75.00,46.33 L74.00,47.00 L73.00,46.00 L72.33,42.50 L74.17,29.67 L73.17,30.00 L70.67,34.17 L68.17,35.67 L65.17,34.17 L64.33,30.67 L61.00,37.33 L59.50,39.00 L58.50,39.00 L56.00,35.67 L56.33,29.50 L53.00,27.67 Z M107.33,40.33 L103.67,41.00 L103.00,42.67 L105.67,42.83 Z M107.17,40.67 L105.00,43.00 L103.00,42.50 L104.00,41.00 L106.00,40.17 Z M99.00,25.00 L98.00,25.17 L96.00,27.83 L94.33,32.17 L99.33,28.17 Z M98.83,25.17 L99.50,26.33 L99.00,28.33 L94.50,31.83 L96.17,27.83 Z M70.67,20.83 L69.17,21.50 L68.33,25.17 L70.67,22.50 Z M70.50,21.00 L70.83,22.00 L68.50,24.83 L69.17,21.83 Z"/>
    <path id="cream" fill="#f8e4b5" d="M59.17,49.67 L55.67,50.00 L52.33,54.00 L53.00,54.17 L48.33,58.00 L47.50,60.17 L44.00,61.83 L43.67,63.83 L44.50,65.50 L49.50,60.17 L50.33,58.00 L55.50,54.00 L59.17,53.17 Z M59.00,51.67 L55.17,52.33 L56.33,50.50 L58.00,50.00 L57.67,51.33 Z M97.67,53.17 L94.50,54.83 L91.17,54.00 L89.17,54.83 L89.17,53.33 L83.33,48.67 L80.83,48.67 L78.83,50.50 L76.17,51.17 L72.67,50.50 L68.33,51.33 L60.50,54.33 L58.67,56.00 L58.83,57.00 L55.17,58.83 L51.83,62.50 L48.50,64.33 L46.50,67.00 L47.00,68.50 L46.33,69.17 L45.67,68.67 L46.00,70.00 L45.00,70.33 L43.83,75.50 L43.33,75.00 L41.83,79.17 L43.17,88.33 L45.17,93.17 L44.67,94.67 L47.50,96.50 L48.33,101.17 L49.50,102.17 L50.67,101.67 L54.33,104.83 L57.17,105.67 L59.33,107.50 L65.00,109.00 L65.33,110.33 L68.17,110.33 L68.50,109.67 L79.33,110.17 L80.67,109.50 L80.33,108.83 L82.50,109.17 L84.17,107.67 L86.00,108.00 L87.00,106.67 L87.50,107.17 L91.33,104.67 L94.17,101.83 L94.83,102.33 L95.00,101.33 L95.17,102.17 L96.67,97.17 L99.67,96.00 L100.00,94.83 L100.17,95.50 L101.00,95.00 L101.33,93.33 L101.00,94.17 L100.67,92.83 L102.83,89.83 L102.67,88.00 L103.83,85.50 L103.83,79.17 L104.50,79.17 L104.50,80.67 L104.67,78.83 L104.50,71.33 L106.00,66.67 L105.67,62.33 L101.67,59.50 Z M88.17,82.50 L74.33,90.67 L68.00,93.00 Z M86.83,79.83 L82.17,82.00 L79.17,84.50 L86.83,80.83 L84.00,83.33 L85.83,82.83 L85.50,83.50 L68.00,92.33 L68.17,93.83 L64.33,92.50 L65.50,90.00 L70.83,86.17 L83.50,80.17 Z M88.50,72.50 L87.17,75.17 L83.50,78.00 L75.83,81.17 L75.33,82.17 L68.00,85.83 L63.83,89.17 L61.00,89.67 L58.00,87.50 L58.33,85.50 L61.00,82.00 L60.67,81.17 L59.00,81.50 L66.83,75.00 L77.67,69.17 L78.67,69.50 L77.17,70.33 L77.00,71.50 L75.83,71.17 L66.50,76.83 L67.83,77.00 L70.00,74.67 L74.67,73.33 L75.33,72.33 L76.67,72.83 L77.83,71.67 L84.33,70.17 L87.17,70.67 Z M75.83,68.17 L69.33,71.67 L68.67,71.33 L72.50,69.00 Z M72.67,68.67 L68.50,70.83 L65.83,73.33 L73.00,70.17 L72.83,70.83 L69.33,72.33 L70.50,72.67 L58.67,81.00 L59.83,82.50 L55.67,81.50 L55.83,78.33 L57.33,76.00 L64.33,70.17 L69.67,67.67 Z"/>
    <path id="yellow" fill="#f4df55" d="M79.67,66.33 L78.17,66.17 L72.50,68.67 L69.67,67.83 L66.67,69.83 L64.33,70.33 L63.33,71.67 L57.50,76.00 L57.17,77.17 L56.00,78.33 L55.83,81.50 L56.50,82.00 L57.67,81.50 L58.33,82.17 L59.83,82.33 L58.83,82.17 L58.50,81.00 L61.00,78.67 L66.33,74.83 L71.67,72.00 L69.33,73.00 L69.33,72.17 L75.17,69.17 L65.83,73.50 L68.50,70.67 L78.50,66.17 L79.83,66.67 L79.50,67.83 Z M58.17,49.83 L57.33,50.67 L56.33,50.67 L55.33,52.33 L58.83,51.67 L57.50,51.33 Z"/>
    <path id="red" fill="#c8433e" d="M86.67,79.83 L83.50,80.33 L70.83,86.33 L65.50,90.17 L64.33,91.83 L65.00,93.00 L66.50,92.83 L67.67,93.67 L68.50,93.50 L67.50,93.17 L68.00,92.17 L73.83,89.67 L85.83,83.00 L84.67,83.67 L83.83,83.50 L86.83,81.00 L80.00,84.67 L79.00,84.50 L82.17,81.83 L83.67,81.67 Z"/>
    <path id="blue" fill="#2b84a7" d="M85.17,73.00 L84.50,72.50 L82.67,72.50 L72.50,76.17 L70.33,77.83 L67.83,78.83 L62.50,83.00 L60.00,86.00 L60.00,87.67 L61.83,88.00 L62.50,86.83 L66.50,83.50 L69.50,82.33 L73.67,79.50 L84.33,74.67 Z M83.83,73.00 L81.83,74.17 L80.33,74.17 L82.00,73.00 Z"/>
    <path id="black" fill="#050505" d="M55.50,114.67 L53.33,116.17 L50.33,122.00 L56.17,115.67 Z M99.50,17.00 L86.00,17.00 L80.00,13.33 L77.33,13.00 L69.67,14.17 L61.17,17.83 L56.67,18.83 L46.67,17.50 L44.33,16.00 L38.67,16.33 L36.17,18.50 L34.83,23.00 L35.83,20.00 L38.83,16.83 L44.00,16.67 L45.33,18.00 L44.00,20.17 L41.00,19.17 L39.00,23.67 L39.17,33.33 L41.67,40.83 L42.50,40.83 L43.83,21.67 L46.50,19.83 L48.00,21.50 L48.17,30.33 L51.17,39.17 L52.17,40.00 L53.17,37.17 L54.33,38.17 L54.67,41.67 L52.83,43.67 L51.17,43.50 L48.00,40.50 L45.50,34.83 L44.67,44.67 L41.33,45.33 L38.00,43.50 L35.00,36.33 L34.67,23.67 L32.83,26.67 L22.00,35.67 L22.67,36.17 L28.33,34.50 L30.33,37.83 L34.50,37.67 L35.33,38.50 L34.33,40.50 L27.83,44.17 L25.33,47.33 L25.83,49.50 L30.17,47.17 L31.33,47.33 L31.67,48.50 L24.17,60.00 L20.17,72.00 L19.33,79.50 L20.17,91.67 L24.17,103.67 L28.00,109.83 L27.50,110.67 L25.00,109.83 L22.83,110.50 L26.33,113.17 L27.00,115.67 L47.17,128.67 L53.00,130.67 L59.33,131.50 L60.00,132.50 L62.83,128.17 L61.33,127.33 L58.67,130.00 L57.33,130.17 L55.50,128.33 L53.00,127.83 L52.17,125.67 L52.67,123.17 L50.17,125.17 L47.83,123.67 L48.00,119.83 L53.00,113.00 L55.33,112.00 L57.83,114.17 L58.00,117.67 L55.50,122.33 L55.00,125.83 L56.33,124.33 L59.83,115.33 L62.33,112.33 L64.17,113.00 L64.00,116.50 L59.17,123.33 L58.33,127.83 L65.50,119.83 L67.50,120.50 L68.67,123.67 L72.50,119.00 L74.17,119.00 L76.50,123.50 L71.33,128.17 L68.17,126.17 L63.50,135.00 L61.50,135.00 L60.00,133.50 L61.67,135.83 L63.67,135.67 L65.00,133.17 L66.50,132.50 L80.00,132.67 L88.00,130.67 L91.50,131.50 L95.33,127.83 L98.83,126.00 L102.33,126.50 L105.17,123.83 L110.67,121.00 L119.83,112.50 L119.17,112.00 L117.00,114.00 L113.50,112.67 L118.67,104.17 L122.67,92.50 L123.83,91.67 L135.67,91.50 L135.50,62.50 L122.83,62.33 L118.67,51.17 L112.00,41.50 L112.50,40.67 L118.33,40.83 L120.33,39.33 L120.33,36.33 L118.33,30.33 L114.17,26.33 L104.17,20.67 Z M105.83,116.17 L104.00,120.00 L104.17,123.67 L102.17,125.83 L97.50,125.00 L96.50,123.83 L94.50,125.83 L93.00,125.00 L92.83,120.67 L94.33,118.00 L97.67,117.67 L98.83,120.17 L99.67,119.50 L100.33,115.00 L101.83,115.50 L102.50,117.83 L103.33,117.83 L104.17,116.17 Z M81.50,114.83 L82.67,114.50 L84.00,115.33 L84.33,118.33 L86.50,115.33 L88.17,116.00 L88.50,118.00 L90.33,116.50 L92.00,117.17 L90.83,128.17 L93.83,128.33 L92.00,130.83 L90.50,130.83 L88.67,128.67 L89.67,120.17 L85.83,127.83 L84.50,126.67 L85.33,120.00 L82.00,128.33 L80.67,129.67 L79.83,129.17 L79.50,127.50 L82.17,117.33 L80.33,120.33 L79.33,119.67 L79.33,118.17 Z M99.00,112.67 L99.17,114.33 L96.33,116.00 L96.00,114.83 L98.00,112.67 Z M43.33,112.17 L44.83,113.50 L45.00,115.00 L42.17,117.83 L43.67,118.33 L44.00,119.67 L40.00,122.00 L36.33,121.00 L34.83,119.50 L35.50,117.50 L39.17,114.83 L40.17,112.67 Z M107.33,106.83 L108.67,107.00 L109.83,118.17 L110.50,119.00 L109.33,121.17 L107.83,120.50 L108.67,118.00 L107.83,117.00 L106.67,109.50 Z M127.83,66.83 L131.33,66.67 L132.17,67.67 L132.33,82.17 L131.50,86.17 L128.00,86.17 L127.33,85.17 L127.00,67.83 Z M115.17,56.33 L118.00,63.83 L119.17,69.00 L119.83,80.00 L117.17,95.83 L111.67,107.50 L108.83,105.83 L106.83,105.83 L103.83,108.67 L96.17,112.83 L91.17,111.83 L85.67,115.00 L80.33,113.17 L78.83,114.00 L79.50,115.17 L78.50,115.83 L74.00,115.83 L69.33,117.17 L65.33,116.67 L66.33,114.00 L65.67,112.33 L80.67,112.50 L91.67,107.17 L93.83,108.50 L93.50,110.50 L95.50,110.00 L95.33,107.83 L93.17,106.67 L100.83,98.67 L102.17,100.00 L102.33,99.17 L103.67,99.17 L103.83,101.50 L106.00,102.00 L106.17,100.00 L102.00,97.17 L105.17,88.50 L106.67,86.50 L108.00,88.33 L111.50,90.00 L113.17,88.33 L111.50,86.83 L108.17,85.83 L106.50,86.17 L106.50,75.00 L105.17,71.17 L105.00,86.00 L101.83,94.50 L95.00,103.00 L86.17,108.83 L80.00,110.83 L73.67,111.50 L62.33,110.00 L51.33,104.17 L44.83,96.50 L41.83,88.83 L41.17,80.17 L42.83,73.17 L45.83,67.33 L51.50,60.67 L57.50,55.83 L64.50,52.33 L72.50,50.50 L75.00,49.17 L64.00,51.00 L56.83,54.50 L49.50,60.33 L41.17,72.50 L38.67,72.50 L36.83,73.83 L35.83,73.33 L36.17,72.33 L33.17,72.33 L32.83,71.67 L32.17,73.17 L34.17,74.50 L37.33,74.67 L40.33,76.00 L39.50,84.83 L35.67,87.00 L33.83,86.67 L32.33,87.50 L32.83,89.00 L35.83,89.00 L38.67,87.50 L40.50,88.83 L43.33,97.83 L41.33,97.33 L41.83,99.50 L39.83,98.67 L37.67,100.67 L40.17,101.67 L42.17,99.83 L44.67,99.00 L50.50,105.50 L49.67,106.50 L50.17,107.83 L48.33,107.83 L46.50,109.67 L49.00,110.67 L52.33,107.33 L53.83,107.50 L62.00,111.50 L59.17,114.83 L57.33,112.00 L55.50,111.00 L51.00,113.00 L35.33,110.17 L29.83,103.33 L26.83,97.17 L24.83,90.33 L24.83,74.33 L26.00,69.33 L30.00,60.50 L32.83,56.00 L38.33,50.00 L40.00,50.33 L43.83,49.00 L48.50,45.00 L56.50,48.50 L63.17,47.00 L65.83,44.33 L67.67,45.83 L71.17,45.17 L73.00,47.50 L75.00,47.83 L76.50,44.83 L77.83,44.00 L88.50,43.83 L95.00,45.83 L104.00,51.00 L106.83,51.50 L111.50,50.67 Z M88.00,82.50 L68.17,93.00 L83.83,85.50 Z M86.83,74.50 L83.50,75.00 L66.83,83.50 L62.00,87.83 L63.67,87.67 L75.00,80.00 Z M112.67,72.17 L111.50,70.67 L107.83,71.50 L107.33,74.17 L109.67,72.33 L111.67,73.33 Z M78.50,69.50 L66.83,75.17 L59.17,81.50 L60.00,81.67 L68.50,75.00 Z M41.17,57.17 L39.67,58.50 L41.83,61.83 L44.33,60.17 L42.50,59.33 L42.00,57.33 Z M106.00,56.33 L104.33,56.17 L103.50,57.00 L102.83,60.50 L104.67,58.33 L106.83,57.83 Z M52.67,49.50 L51.67,50.83 L53.00,53.00 L54.33,50.00 Z M92.00,48.00 L90.33,48.67 L91.33,52.17 L93.50,49.50 Z M52.33,25.33 L53.33,23.67 L55.50,23.17 L56.17,26.33 L58.83,26.17 L60.17,27.17 L59.67,35.33 L64.83,22.17 L67.83,18.83 L71.50,18.67 L73.50,20.50 L73.00,23.33 L67.83,28.50 L67.67,32.00 L68.33,33.00 L75.83,23.50 L77.83,17.67 L79.50,17.50 L81.17,19.17 L79.33,26.83 L86.17,18.50 L89.00,17.67 L91.33,20.17 L90.17,26.67 L93.33,25.50 L96.17,22.83 L99.00,22.50 L100.83,24.00 L101.50,26.00 L103.17,25.83 L104.83,27.00 L105.17,29.00 L102.33,32.83 L101.17,36.33 L108.33,31.67 L110.33,28.17 L112.50,27.67 L114.00,28.67 L114.17,30.33 L112.50,32.83 L112.00,37.33 L118.50,37.83 L119.17,39.00 L118.33,40.17 L111.50,40.50 L109.83,44.50 L107.50,46.50 L105.83,46.83 L103.33,46.00 L101.00,43.00 L100.83,41.33 L102.17,39.17 L99.67,39.67 L98.00,38.33 L97.67,32.83 L93.67,35.50 L91.17,34.33 L91.17,29.17 L87.67,30.33 L81.17,35.50 L79.17,32.50 L85.50,26.17 L87.67,22.83 L87.17,21.50 L83.17,25.17 L78.17,32.33 L76.33,37.67 L75.33,46.50 L74.17,47.33 L72.83,46.50 L72.00,44.33 L73.83,30.33 L70.83,34.50 L68.33,36.00 L64.83,34.33 L64.17,31.50 L61.00,37.83 L59.50,39.33 L58.33,39.33 L55.83,36.33 L56.00,29.67 L52.83,28.00 Z M107.00,40.67 L104.00,41.17 L103.17,42.50 L105.00,42.83 Z M108.17,34.67 L107.33,34.50 L102.67,38.83 L107.83,37.33 Z M98.83,25.33 L96.33,27.83 L94.50,31.67 L98.83,28.33 Z"/>
    <path id="white" fill="#ffffff" d="M67.33,122.83 L65.17,125.33 L65.67,126.17 L65.17,127.67 L61.33,131.50 L61.17,133.00 L62.17,134.50 L63.33,134.17 L65.50,129.50 L65.50,128.50 L67.67,125.50 L66.67,124.67 Z M63.50,129.67 L64.33,130.50 L63.17,133.33 L62.17,133.83 L61.33,132.33 Z M74.17,120.17 L74.17,122.83 L73.17,123.83 L72.83,125.50 L71.67,126.67 L70.33,126.83 L70.67,127.50 L72.17,126.83 L74.00,124.17 L75.33,123.33 Z M73.17,119.83 L72.50,120.00 L69.33,124.33 L68.17,125.17 L70.17,126.17 L70.67,123.67 L71.67,122.83 Z M90.33,117.33 L89.50,118.33 L90.83,118.83 L89.50,124.67 L89.33,128.33 L90.33,129.67 L91.67,130.00 L92.67,129.17 L91.00,129.33 L90.17,128.33 L91.50,120.00 L91.50,117.67 Z M87.33,116.17 L86.33,116.33 L86.17,116.83 L87.33,119.33 L86.50,120.00 L86.33,122.00 L85.50,123.00 L85.67,126.67 L88.50,120.67 L88.33,119.67 L87.50,119.17 Z M103.50,118.83 L102.33,119.00 L101.33,117.67 L101.17,116.17 L100.50,116.00 L100.50,119.33 L101.83,119.50 L102.17,121.00 L101.33,122.00 L99.83,122.17 L98.33,123.17 L97.50,122.33 L97.67,118.83 L96.00,119.17 L95.50,118.50 L94.67,118.67 L93.50,120.83 L93.50,124.17 L94.33,124.67 L95.50,123.33 L94.33,122.67 L94.50,120.00 L95.83,119.17 L96.50,120.50 L96.17,122.67 L97.83,124.17 L99.67,124.00 L101.17,125.17 L102.00,125.00 L103.67,123.00 L103.17,120.83 Z M102.17,122.00 L102.67,123.33 L101.17,124.50 L100.50,123.00 Z M82.83,115.33 L80.67,116.67 L80.00,118.50 L80.33,119.50 L81.67,116.33 L83.00,116.33 L82.33,121.17 L80.50,126.50 L80.50,128.67 L81.50,127.50 L82.50,124.00 L84.50,120.00 L83.33,118.67 L83.67,116.50 Z M63.33,113.17 L62.50,113.17 L60.33,116.00 L57.50,122.33 L57.17,124.67 L56.00,126.33 L54.50,126.83 L53.83,125.33 L55.67,120.00 L57.17,117.67 L57.00,117.00 L50.67,123.00 L49.33,122.83 L50.50,119.00 L52.67,115.83 L54.83,113.83 L56.83,114.33 L55.83,113.17 L53.67,113.50 L49.67,118.33 L48.33,121.83 L49.00,124.00 L50.17,124.33 L53.67,121.50 L53.17,126.33 L53.83,127.50 L55.83,127.50 L57.50,129.50 L59.33,128.67 L61.33,126.50 L63.17,127.50 L63.50,126.67 L62.50,126.17 L62.67,125.33 L64.50,122.67 L66.67,121.33 L66.17,120.50 L64.17,122.00 L59.17,128.17 L57.83,128.50 L57.33,126.50 L58.50,122.83 L61.50,119.00 L60.67,118.00 L61.00,116.17 L62.17,114.33 L62.83,114.50 L63.33,115.67 Z M43.50,113.17 L40.33,113.33 L39.83,115.50 L36.67,117.33 L35.67,119.33 L38.33,121.33 L39.50,121.33 L42.83,119.33 L40.83,118.17 L40.83,119.67 L39.67,120.33 L38.00,120.50 L36.50,119.50 L36.83,118.67 L39.50,116.67 L42.17,116.50 L40.67,115.67 L40.67,114.67 L41.67,113.67 L43.00,113.67 L43.67,114.33 L43.17,115.50 L43.67,115.50 L44.17,114.17 Z M107.67,107.67 L107.33,108.83 L108.67,114.50 L108.17,107.67 Z M28.17,97.33 L28.33,98.67 L31.17,104.00 L34.33,108.33 L35.67,109.17 L30.67,102.33 Z M118.67,78.83 L118.00,87.17 L116.83,92.00 L114.00,100.17 L110.83,106.00 L111.17,106.67 L113.50,103.17 L116.50,95.50 L118.50,85.33 Z M69.67,77.00 L68.67,76.67 L66.83,77.50 L64.83,79.33 L63.83,79.50 L63.67,80.50 L62.83,80.67 L62.67,81.50 L63.33,81.50 L63.83,80.50 L66.17,79.17 L68.33,77.00 Z M73.00,74.83 L72.00,74.50 L71.33,75.00 L71.67,75.67 L69.83,75.33 L69.33,76.00 L71.33,76.17 Z M128.67,67.50 L128.00,68.83 L128.17,85.33 L130.83,85.50 L131.50,84.17 L131.33,68.00 L130.83,67.50 Z M76.33,47.33 L76.50,48.00 L77.83,48.33 L80.67,48.00 L80.33,47.00 L78.67,48.17 L77.50,48.17 L76.67,47.00 Z M53.17,25.50 L53.33,27.17 L54.00,28.00 L57.17,28.67 L56.50,34.83 L57.17,37.33 L58.67,38.50 L59.67,38.33 L61.33,36.00 L62.67,32.17 L64.17,29.83 L65.17,30.00 L65.50,33.67 L67.50,35.00 L68.50,35.00 L70.17,34.00 L73.00,29.33 L74.67,28.67 L75.00,29.83 L73.50,35.50 L73.17,44.67 L74.17,46.50 L75.67,36.33 L76.50,34.00 L81.00,26.83 L87.00,20.50 L88.67,21.00 L88.33,23.17 L86.17,26.67 L80.00,32.67 L81.17,34.50 L82.00,34.50 L87.17,29.67 L91.33,28.17 L92.33,28.50 L91.50,30.83 L91.50,32.83 L92.33,34.50 L93.83,34.50 L98.17,31.17 L99.17,31.67 L99.17,32.83 L98.33,34.00 L98.33,37.00 L99.50,38.67 L101.83,38.17 L107.00,33.83 L108.50,33.17 L109.33,34.00 L108.83,37.83 L103.17,39.50 L101.67,41.67 L102.33,43.83 L104.67,45.67 L106.67,45.83 L107.83,45.33 L109.33,43.67 L110.50,40.33 L111.33,39.50 L118.33,39.33 L118.00,38.50 L111.83,38.33 L110.83,37.50 L111.67,32.33 L113.50,30.00 L113.33,29.17 L112.17,28.50 L110.00,29.67 L109.00,32.17 L107.67,32.50 L101.83,37.17 L100.33,37.33 L100.50,34.67 L104.33,29.00 L104.33,27.67 L103.17,26.83 L101.50,27.17 L100.33,24.67 L99.00,23.33 L96.67,23.50 L93.33,26.50 L89.00,27.67 L89.33,25.67 L90.50,23.67 L90.50,20.00 L89.17,18.50 L87.50,18.67 L84.50,21.33 L79.67,28.00 L78.00,29.00 L77.67,27.83 L79.33,24.50 L80.50,19.67 L79.83,18.50 L78.33,18.33 L76.83,23.50 L73.33,27.67 L69.67,33.17 L68.00,34.00 L66.67,32.50 L66.83,28.33 L71.50,24.17 L72.50,22.67 L72.67,20.50 L71.17,19.33 L68.33,19.50 L65.67,22.33 L64.17,27.50 L61.33,34.17 L59.33,37.00 L58.50,36.33 L59.33,27.33 L55.17,27.17 L54.50,26.17 L55.33,24.67 L55.17,24.00 L53.83,24.33 Z M108.17,39.83 L107.17,42.17 L105.83,43.33 L104.50,43.83 L102.50,42.83 L102.33,42.00 L103.50,40.50 L106.00,39.50 Z M99.17,24.50 L100.17,26.17 L99.83,28.50 L95.50,32.33 L94.00,33.00 L93.50,31.33 L95.83,27.17 L98.00,24.50 Z M70.83,20.33 L71.33,20.83 L71.17,22.83 L68.83,25.67 L68.00,25.83 L67.50,24.17 L69.33,20.33 Z M39.33,17.50 L36.50,20.50 L35.33,26.50 L35.33,33.17 L37.50,41.17 L38.33,42.67 L40.17,44.17 L43.83,44.33 L44.50,43.00 L44.50,34.33 L44.83,33.33 L45.83,33.00 L48.50,39.83 L51.17,42.50 L53.17,42.67 L53.67,42.17 L53.67,38.50 L53.17,38.67 L53.17,40.17 L52.50,41.33 L50.83,40.33 L47.50,31.50 L46.67,25.50 L47.00,21.83 L46.33,20.83 L44.83,21.67 L44.33,24.17 L43.33,41.67 L42.00,42.33 L40.83,41.50 L38.67,35.33 L37.83,29.83 L37.83,25.67 L38.67,21.50 L39.83,19.17 L41.67,18.17 L43.67,19.50 L44.50,18.67 L44.50,17.67 Z"/>
  </g>
</svg>